<?xml version="1.0" encoding="UTF-8" standalone="no"?>
<svg
   xmlns:dc="http://purl.org/dc/elements/1.1/"
   xmlns:cc="http://creativecommons.org/ns#"
   xmlns:rdf="http://www.w3.org/1999/02/22-rdf-syntax-ns#"
   xmlns:svg="http://www.w3.org/2000/svg"
   xmlns="http://www.w3.org/2000/svg"
   xmlns:sodipodi="http://sodipodi.sourceforge.net/DTD/sodipodi-0.dtd"
   xmlns:inkscape="http://www.inkscape.org/namespaces/inkscape"
   xml:space="preserve"
   width="3.6in"
   height="3.6in"
   version="1.1"
   style="shape-rendering:geometricPrecision; text-rendering:geometricPrecision; image-rendering:optimizeQuality; fill-rule:evenodd; clip-rule:evenodd"
   viewBox="0 0 3600 3600"
   id="svg29"
   sodipodi:docname="jucpavers_curvas.svg"><metadata
   id="metadata33"><rdf:RDF><cc:Work
       rdf:about=""><dc:format>image/svg+xml</dc:format><dc:type
         rdf:resource="http://purl.org/dc/dcmitype/StillImage" /></cc:Work></rdf:RDF></metadata><sodipodi:namedview
   pagecolor="#ffffff"
   bordercolor="#666666"
   borderopacity="1"
   objecttolerance="10"
   gridtolerance="10"
   guidetolerance="10"
   inkscape:pageopacity="0"
   inkscape:pageshadow="2"
   inkscape:window-width="640"
   inkscape:window-height="480"
   id="namedview31" />
 <defs
   id="defs4">
  <style
   type="text/css"
   id="style2">
   <![CDATA[
    .fil3 {fill:#A9ABAE}
    .fil4 {fill:#003760}
    .fil2 {fill:#9ECF84}
    .fil0 {fill:#003760;fill-rule:nonzero}
    .fil5 {fill:#373435;fill-rule:nonzero}
    .fil1 {fill:#9ECF84;fill-rule:nonzero}
   ]]>
  </style>
 </defs>
 <g
   id="Layer_x0020_1">
  <metadata
   id="CorelCorpID_0Corel-Layer" />
  <g
   id="_709159600944">
   <g
   id="g11">
    <path
   class="fil0"
   d="m 292.28,2809.7 v -171.86 c 0,-4.04 1.26,-7.44 3.79,-10.22 2.52,-2.78 5.8,-4.42 9.84,-4.92 36.84,-2.52 70.16,-15.39 99.94,-38.61 29.78,-23.22 52.36,-51.61 67.76,-85.17 15.39,-33.56 23.09,-68.52 23.09,-104.85 v -334.64 c 0,-4.04 1.39,-7.44 4.17,-10.22 2.78,-2.78 6.18,-4.17 10.22,-4.17 h 183.22 c 4.04,0 7.44,1.39 10.22,4.17 2.78,2.78 4.16,6.19 4.16,10.22 v 383.09 c 0,33.31 -4.04,66.5 -12.11,99.56 -8.08,33.06 -22.08,66.5 -42.02,100.31 -19.94,33.81 -44.8,63.72 -74.57,89.71 -29.78,26 -68.14,47.57 -115.08,64.73 -46.94,17.16 -99.43,26.25 -157.48,27.26 -4.04,0.5 -7.57,-0.76 -10.6,-3.78 -3.03,-3.03 -4.54,-6.56 -4.54,-10.6 z m 1078.86,-764.67 c 4.04,0 7.44,1.39 10.22,4.17 2.78,2.78 4.16,6.19 4.16,10.22 v 455.02 c 0,29.78 -3.28,58.67 -9.84,86.69 -6.56,28.01 -17.92,55.77 -34.07,83.28 -16.15,27.51 -36.34,51.48 -60.57,71.93 -24.23,20.44 -55.52,36.85 -93.88,49.21 -38.36,12.37 -81.39,18.55 -129.08,18.55 -47.7,0 -90.6,-6.18 -128.71,-18.55 -38.11,-12.37 -69.4,-28.77 -93.88,-49.21 -24.48,-20.44 -44.8,-44.42 -60.94,-71.93 -16.15,-27.51 -27.51,-55.27 -34.07,-83.28 -6.56,-28.01 -9.84,-56.91 -9.84,-86.69 v -455.02 c 0,-4.04 1.39,-7.44 4.17,-10.22 2.78,-2.78 6.18,-4.17 10.22,-4.17 h 183.22 c 4.04,0 7.57,1.39 10.6,4.17 3.03,2.78 4.54,6.19 4.54,10.22 v 458.8 c 0,15.65 1.89,30.41 5.68,44.29 3.79,13.88 9.97,27.13 18.55,39.75 8.58,12.62 20.69,22.59 36.34,29.91 15.65,7.32 33.82,10.98 54.51,10.98 20.69,0 38.86,-3.66 54.51,-10.98 15.65,-7.32 27.63,-17.29 35.96,-29.91 8.33,-12.62 14.51,-25.87 18.55,-39.75 4.04,-13.88 6.06,-28.65 6.06,-44.29 v -458.8 c 0,-4.04 1.39,-7.44 4.16,-10.22 2.78,-2.78 6.19,-4.17 10.22,-4.17 h 183.22 z m 595.83,495.14 146.12,115.83 c 3.03,2.52 4.8,5.8 5.3,9.84 0.5,4.04 -0.5,7.57 -3.03,10.6 -37.35,45.93 -82.9,82.02 -136.65,108.26 -53.76,26.25 -111.42,39.37 -173,39.37 -54.01,0 -105.49,-10.35 -154.45,-31.04 -48.96,-20.69 -91.23,-48.71 -126.81,-84.04 -35.58,-35.33 -63.85,-77.48 -84.79,-126.43 -20.95,-48.96 -31.42,-100.19 -31.42,-153.69 0,-53.5 10.47,-104.61 31.42,-153.31 20.94,-48.7 49.21,-90.72 84.79,-126.06 35.59,-35.33 77.85,-63.47 126.81,-84.42 48.96,-20.94 100.44,-31.42 154.45,-31.42 61.07,0 118.61,13.12 172.61,39.37 54.01,26.24 99.43,62.08 136.28,107.5 2.52,3.54 3.53,7.32 3.03,11.36 -0.5,4.04 -2.27,7.32 -5.3,9.84 l -146.12,115.08 c -3.03,2.52 -6.44,3.66 -10.22,3.41 -3.78,-0.25 -6.94,-1.89 -9.46,-4.92 -17.67,-19.69 -38.99,-35.83 -63.98,-48.45 -24.98,-12.62 -50.6,-18.93 -76.84,-18.93 -50.48,0 -93.38,17.67 -128.71,53 -35.33,35.33 -53,77.98 -53,127.95 0,49.96 17.67,92.61 53,127.95 35.33,35.33 78.23,53 128.71,53 26.24,0 51.98,-6.31 77.22,-18.93 25.24,-12.62 46.69,-29.02 64.35,-49.21 2.52,-3.03 5.68,-4.67 9.46,-4.92 3.78,-0.26 7.19,0.88 10.22,3.41 z"
   id="path7" />
    <path
   class="fil1"
   d="m 2671.82,2259.3 c 0,25.24 -7.32,52.24 -21.96,81.01 -14.64,28.77 -34.07,56.66 -58.3,83.66 -24.23,27 -48.33,51.86 -72.3,74.57 -23.98,22.71 -48.83,45.81 -74.57,69.28 -25.74,23.47 -43.91,41.26 -54.51,53.37 h 244.54 c 4.04,0 7.57,1.39 10.6,4.17 3.03,2.78 4.54,6.43 4.54,10.98 V 2787 c 0,4.54 -1.52,8.2 -4.54,10.98 -3.03,2.78 -6.56,4.16 -10.6,4.16 h -478.48 c -4.54,0 -8.2,-1.39 -10.98,-4.16 -2.78,-2.78 -4.17,-6.44 -4.17,-10.98 v -161.26 c 0,-3.03 1.01,-5.8 3.03,-8.33 37.35,-53.5 80.5,-103.47 129.46,-149.91 11.1,-10.6 27.26,-25.36 48.45,-44.29 21.2,-18.93 37.73,-34.07 49.59,-45.43 11.86,-11.35 24.61,-24.35 38.23,-38.99 13.63,-14.64 23.6,-28.14 29.91,-40.51 6.31,-12.37 9.46,-23.85 9.46,-34.44 0,-13.13 -3.79,-23.85 -11.36,-32.18 -7.57,-8.33 -17.16,-13.88 -28.77,-16.66 -11.61,-2.78 -20.57,-4.54 -26.88,-5.3 -6.31,-0.76 -11.73,-0.88 -16.28,-0.38 -64.61,2.02 -120.13,8.33 -166.56,18.93 -4.54,1.01 -8.58,0.13 -12.11,-2.65 -3.53,-2.78 -5.55,-6.18 -6.06,-10.22 l -16.66,-155.2 c -0.5,-4.04 0.63,-7.7 3.41,-10.98 2.78,-3.28 6.18,-5.17 10.22,-5.68 76.21,-6.56 150.16,-9.84 221.83,-9.84 16.15,0 32.18,0.76 48.07,2.27 15.9,1.51 33.06,4.54 51.48,9.08 18.42,4.54 35.58,10.35 51.48,17.41 15.9,7.07 31.42,16.41 46.56,28.02 15.14,11.61 28.14,25.11 38.99,40.5 10.85,15.39 19.43,34.07 25.74,56.02 6.31,21.96 9.46,46.06 9.46,72.3 z m 313.44,275.58 c -54.51,0 -103.98,-11.23 -148.39,-33.69 -44.42,-22.46 -79.24,-52.74 -104.48,-90.85 -25.24,-38.11 -37.85,-80.13 -37.85,-126.06 0,-72.18 25.87,-130.09 77.6,-173.75 51.74,-43.66 127.95,-65.49 228.64,-65.49 100.69,0 176.91,21.83 228.64,65.49 51.74,43.66 77.6,101.57 77.6,173.75 0,55.52 -3.03,106.12 -9.08,151.8 -6.06,45.68 -13.63,85.3 -22.71,118.87 -9.09,33.56 -21.96,63.34 -38.61,89.33 -16.65,26 -32.68,47.7 -48.07,65.11 -15.39,17.41 -35.46,32.05 -60.19,43.91 -24.73,11.86 -46.69,20.94 -65.87,27.26 -19.18,6.31 -44.04,11.1 -74.57,14.39 -30.54,3.28 -55.77,5.3 -75.71,6.06 -19.94,0.76 -46.56,1.13 -79.87,1.13 -4.04,0 -7.57,-1.39 -10.6,-4.16 -3.03,-2.78 -4.54,-6.19 -4.54,-10.22 v -158.23 c 0,-4.04 1.77,-7.57 5.3,-10.6 3.53,-3.03 7.32,-4.04 11.36,-3.03 69.15,8.58 127.19,3.66 174.13,-14.76 46.94,-18.42 75.2,-45.55 84.8,-81.39 -35.33,10.09 -71.17,15.14 -107.51,15.14 z m 17.41,-316.46 c -27.76,0 -49.72,6.94 -65.87,20.82 -16.15,13.88 -24.23,30.91 -24.23,51.1 0,20.19 8.07,37.22 24.23,51.11 16.15,13.88 36.09,20.82 59.81,20.82 24.23,0 45.68,-7.07 64.35,-21.2 18.68,-14.13 28.01,-31.04 28.01,-50.72 0,-20.19 -7.95,-37.22 -23.85,-51.1 -15.9,-13.88 -36.72,-20.82 -62.46,-20.82 z"
   id="path9" />
   </g>
   <path
   class="fil2"
   d="m 1569.47,658.21 199.14,-199.15 c 31.98,-31.98 82.8,-33.03 113.49,-2.34 l 709.76,709.77 c 30.69,30.68 29.65,81.5 -2.33,113.48 l -199.15,199.15 c -31.97,31.97 -82.79,33.01 -113.48,2.32 L 1567.13,771.68 c -30.68,-30.7 -29.63,-81.51 2.35,-113.49 z"
   id="path13" />
   <path
   class="fil3"
   d="m 1040.73,1883.9 751.43,-751.43 c 19.31,-19.31 50.91,-19.31 70.21,0 l 750.7,750.7 c 19.31,19.31 19.31,50.91 0,70.21 l -2.06,2.06 H 1042.04 l -1.32,-1.32 c -19.31,-19.31 -19.31,-50.91 0,-70.22 v 0 z"
   id="path15" />
   <path
   class="fil4"
   d="m 2415.49,1504.26 199.17,-199.17 c 31.85,-31.84 83.94,-31.84 115.78,0 l 552.7,552.7 c 26.33,26.33 30.9,66.52 13.67,97.65 h -545.94 l -335.39,-335.39 c -31.84,-31.84 -31.85,-83.93 0,-115.78 v 0 z"
   id="path17" />
   <path
   class="fil4"
   d="m 369.06,1858.63 199.17,-199.17 c 31.85,-31.85 83.94,-31.85 115.78,-0.01 l 295.98,295.99 H 354.94 c -16.69,-31.01 -11.98,-70.7 14.11,-96.81 v 0 z"
   id="path19" />
   <path
   class="fil2"
   d="M 919.23,1820.93 720.09,1621.79 c -31.98,-31.98 -48.06,-67.77 -35.91,-79.92 l 281.01,-280.99 c 12.14,-12.15 47.93,3.92 79.91,35.9 l 199.15,199.15 c 31.97,31.97 48.05,67.76 35.9,79.91 l -280.99,281 c -12.16,12.14 -47.94,-3.94 -79.92,-35.91 z"
   id="path21" />
   <path
   class="fil4"
   d="m 1273.56,1468.27 -199.14,-199.14 c -31.98,-31.98 -43.56,-72.27 -25.85,-89.97 l 409.41,-409.39 c 17.69,-17.71 57.98,-6.13 89.96,25.85 l 199.15,199.15 c 31.97,31.97 43.54,72.26 25.84,89.96 l -409.39,409.41 c -17.71,17.69 -57.99,6.12 -89.97,-25.86 z"
   id="path23" />
   <path
   class="fil5"
   d="m 456.24,3010.5 c -7.09,-9.87 -15.03,-17.11 -23.82,-21.74 -8.76,-4.64 -18.78,-6.97 -30.02,-6.97 -17.59,0 -32.65,6.53 -45.15,19.59 -12.5,13.06 -18.78,28.57 -18.78,46.56 0,19.15 6.24,35.29 18.67,48.38 12.43,13.13 27.49,19.7 45.26,19.7 10.94,0 20.85,-2.3 29.68,-6.86 8.83,-4.6 16.51,-11.43 23.04,-20.52 h 18.48 c -7.24,13.47 -16.96,23.89 -29.13,31.28 -12.17,7.35 -25.82,11.02 -40.96,11.02 -23.26,0 -42.67,-7.94 -58.21,-23.78 -15.54,-15.88 -23.3,-35.69 -23.3,-59.44 0,-11.09 2.11,-21.59 6.31,-31.54 4.19,-9.91 10.35,-18.85 18.48,-26.83 7.53,-7.53 15.99,-13.24 25.38,-17.1 9.39,-3.9 19.56,-5.83 30.5,-5.83 15.73,0 29.87,3.82 42.44,11.5 12.57,7.68 22.52,18.55 29.83,32.57 h -18.7 z m 48.3,57.36 c 0,13.8 4.38,25.34 13.17,34.65 8.76,9.31 19.7,13.95 32.72,13.95 12.84,0 23.63,-4.64 32.32,-13.95 8.72,-9.31 13.06,-20.93 13.06,-34.84 0,-14.14 -4.42,-25.75 -13.21,-34.84 -8.83,-9.09 -20,-13.65 -33.58,-13.65 -12.17,0 -22.63,4.67 -31.39,14.02 -8.72,9.35 -13.1,20.89 -13.1,34.65 z m -16.03,0.3 c 0,-17.55 6.01,-32.54 18.03,-44.96 12.02,-12.47 26.27,-18.7 42.7,-18.7 17.33,0 32.09,6.12 44.3,18.37 12.2,12.24 18.29,26.82 18.29,43.78 0,17.81 -5.97,33.02 -17.92,45.63 -11.94,12.58 -26.45,18.89 -43.48,18.89 -17.29,0 -31.94,-6.16 -43.93,-18.51 -11.98,-12.35 -18,-27.2 -18,-44.49 z m 141.36,-59.88 h 14.91 v 13.54 c 4.71,-5.42 10.17,-9.46 16.36,-12.06 6.2,-2.63 13.28,-3.93 21.26,-3.93 8.79,0 16.58,1.63 23.45,4.9 6.83,3.27 12.24,7.94 16.25,14.03 2.74,4.26 4.71,9.31 5.93,15.06 1.19,5.75 1.78,14.24 1.78,25.49 v 62.52 h -15.14 v -66.97 c 0,-14.13 -2.71,-24.37 -8.09,-30.76 -5.42,-6.38 -14.06,-9.57 -25.93,-9.57 -6.98,0 -13.06,1.41 -18.33,4.19 -5.23,2.78 -9.39,6.79 -12.43,12.02 -1.89,3.23 -3.23,6.98 -3.97,11.13 -0.78,4.15 -1.15,11.43 -1.15,21.78 v 58.18 h -14.91 v -119.54 z m 219.97,36.73 c -4.71,-8.72 -10.46,-15.17 -17.25,-19.33 -6.75,-4.19 -14.84,-6.27 -24.19,-6.27 -12.32,0 -22.78,4.67 -31.39,14.02 -8.57,9.35 -12.87,20.89 -12.87,34.65 0,13.76 4.3,25.26 12.95,34.5 8.61,9.24 19.3,13.87 31.98,13.87 9.28,0 17.47,-2.26 24.56,-6.83 7.13,-4.56 12.5,-10.98 16.21,-19.22 h 16.92 c -4.64,12.95 -11.91,23 -21.85,30.09 -9.91,7.08 -21.59,10.65 -35.1,10.65 -17.29,0 -31.91,-6.16 -43.82,-18.44 -11.91,-12.28 -17.88,-27.08 -17.88,-44.41 0,-17.66 6.05,-32.65 18.11,-44.93 12.06,-12.28 26.75,-18.44 44.04,-18.44 12.98,0 24.41,3.49 34.28,10.5 9.91,7.01 17.29,16.88 22.22,29.57 h -16.92 z m 54.54,82.81 H 888.8 v -119.54 h 14.51 v 13.84 c 3.75,-5.34 7.83,-9.2 12.28,-11.69 4.42,-2.48 9.61,-3.78 15.51,-3.93 l 0.11,16.7 c -9.57,0.85 -16.47,3.75 -20.59,8.65 -4.16,4.89 -6.24,12.83 -6.24,23.85 v 72.13 z m 157.61,-54.98 H 954.03 c 0.93,13.02 5.68,23.56 14.13,31.57 8.5,8.05 19.07,12.06 31.76,12.06 9.02,0 17.1,-2.33 24.26,-7.01 7.2,-4.67 12.73,-11.17 16.66,-19.48 h 17.37 c -5.49,13.24 -13.25,23.45 -23.19,30.54 -9.98,7.08 -21.52,10.65 -34.62,10.65 -17.4,0 -32.13,-6.2 -44.15,-18.59 -12.02,-12.39 -18.03,-27.31 -18.03,-44.67 0,-18.22 5.9,-33.24 17.66,-45.12 11.76,-11.91 26.82,-17.85 45.15,-17.85 17.96,0 32.61,6.2 43.96,18.55 11.31,12.35 16.99,28.42 16.99,48.23 v 1.11 z m -16.92,-13.36 c -2.89,-13.28 -8.24,-23.3 -15.99,-30.02 -7.75,-6.71 -17.88,-10.05 -30.35,-10.05 -11.61,0 -21.44,3.6 -29.5,10.83 -8.01,7.2 -12.94,16.96 -14.76,29.24 z m 44.96,68.34 v -104.18 h -22.7 v -15.36 h 22.7 v -38.73 h 15.36 v 38.73 h 22.7 v 15.36 h -22.7 v 104.18 z m 167.63,-54.98 H 1149.7 c 0.93,13.02 5.68,23.56 14.13,31.57 8.5,8.05 19.07,12.06 31.76,12.06 9.02,0 17.1,-2.33 24.26,-7.01 7.2,-4.67 12.73,-11.17 16.66,-19.48 h 17.37 c -5.49,13.24 -13.25,23.45 -23.19,30.54 -9.98,7.08 -21.52,10.65 -34.62,10.65 -17.4,0 -32.13,-6.2 -44.15,-18.59 -12.02,-12.39 -18.03,-27.31 -18.03,-44.67 0,-18.22 5.9,-33.24 17.66,-45.12 11.76,-11.91 26.82,-17.85 45.15,-17.85 17.96,0 32.61,6.2 43.96,18.55 11.31,12.35 16.99,28.42 16.99,48.23 v 1.11 z m -16.92,-13.36 c -2.89,-13.28 -8.24,-23.3 -15.99,-30.02 -7.75,-6.71 -17.88,-10.05 -30.35,-10.05 -11.61,0 -21.44,3.6 -29.5,10.83 -8.01,7.2 -12.94,16.96 -14.76,29.24 z m 113.57,-74.35 v 60.33 h 22.93 c 12.76,0 22.19,-2.41 28.27,-7.27 6.09,-4.86 9.13,-12.35 9.13,-22.52 0,-10.57 -3.08,-18.29 -9.2,-23.19 -6.12,-4.9 -15.96,-7.35 -29.5,-7.35 z m -15.59,-15.58 h 33.61 c 9.65,0 17.37,0.52 23.15,1.52 5.79,1 10.61,2.63 14.43,4.9 6.98,4.19 12.32,9.65 16.03,16.36 3.75,6.68 5.6,14.25 5.6,22.63 0,7.98 -1.67,15.36 -5.05,22.11 -3.37,6.79 -8.05,12.17 -14.06,16.14 -4.19,2.82 -9.24,4.9 -15.06,6.16 -5.83,1.26 -13.25,1.89 -22.3,1.89 h -20.78 v 66.56 h -15.59 v -158.28 z m 202.76,97.69 c 0,-12.69 -4.52,-23.74 -13.61,-33.2 -9.06,-9.46 -19.48,-14.17 -31.31,-14.17 -12.84,0 -23.78,4.71 -32.8,14.17 -9.02,9.46 -13.54,21.19 -13.54,35.17 0,13.32 4.49,24.56 13.5,33.73 8.98,9.16 19.78,13.76 32.39,13.76 12.2,0 22.82,-4.82 31.83,-14.51 9.02,-9.68 13.54,-21.33 13.54,-34.95 z m 0,41.63 c -4.78,6.9 -11.24,12.28 -19.4,16.22 -8.17,3.89 -16.96,5.86 -26.34,5.86 -17.55,0 -32.17,-6.01 -43.82,-18 -11.69,-11.98 -17.51,-26.79 -17.51,-44.41 0,-17.89 5.97,-32.83 17.88,-44.89 11.91,-12.02 26.83,-18.03 44.75,-18.03 9.2,0 17.62,1.85 25.3,5.6 7.68,3.75 14.06,9.13 19.14,16.14 v -19.07 h 14.92 v 119.54 h -14.92 z m 85.89,18.96 h -14.02 l -46.75,-119.54 h 16.21 l 38.25,96.39 38.62,-96.39 h 16.66 z m 176.75,-54.98 h -107.96 c 0.93,13.02 5.68,23.56 14.13,31.57 8.5,8.05 19.07,12.06 31.76,12.06 9.02,0 17.1,-2.33 24.26,-7.01 7.2,-4.67 12.73,-11.17 16.66,-19.48 h 17.37 c -5.49,13.24 -13.25,23.45 -23.19,30.54 -9.98,7.08 -21.52,10.65 -34.62,10.65 -17.4,0 -32.13,-6.2 -44.15,-18.59 -12.02,-12.39 -18.03,-27.31 -18.03,-44.67 0,-18.22 5.9,-33.24 17.66,-45.12 11.76,-11.91 26.82,-17.85 45.15,-17.85 17.96,0 32.61,6.2 43.96,18.55 11.31,12.35 16.99,28.42 16.99,48.23 v 1.11 z m -16.92,-13.36 c -2.89,-13.28 -8.24,-23.3 -15.99,-30.02 -7.75,-6.71 -17.88,-10.05 -30.35,-10.05 -11.61,0 -21.44,3.6 -29.5,10.83 -8.01,7.2 -12.94,16.96 -14.76,29.24 z m 49.86,68.34 h -15.58 v -119.54 h 14.51 v 13.84 c 3.75,-5.34 7.83,-9.2 12.28,-11.69 4.42,-2.48 9.61,-3.78 15.51,-3.93 l 0.11,16.7 c -9.57,0.85 -16.47,3.75 -20.59,8.65 -4.16,4.89 -6.24,12.83 -6.24,23.85 v 72.13 z m 32.72,-37.62 h 15.81 v 0.44 c 0,7.46 2.15,13.62 6.42,18.52 4.27,4.86 9.54,7.31 15.84,7.31 5.97,0 10.98,-1.89 14.95,-5.64 3.97,-3.78 5.97,-8.54 5.97,-14.25 0,-5.71 -1.59,-10.31 -4.75,-13.8 -3.15,-3.45 -8.87,-6.71 -17.1,-9.76 -13.25,-4.71 -21.89,-9.54 -25.94,-14.47 -4.04,-4.94 -6.08,-11.54 -6.08,-19.78 0,-9.35 3.37,-17.29 10.17,-23.82 6.75,-6.53 14.99,-9.8 24.6,-9.8 10.24,0 18.33,2.89 24.34,8.68 6.01,5.83 9.24,13.91 9.69,24.26 h -16.48 c -0.37,-5.64 -2.15,-10.02 -5.38,-13.13 -3.23,-3.11 -7.61,-4.67 -13.21,-4.67 -4.97,0 -9.17,1.67 -12.46,5.04 -3.34,3.38 -5.01,7.57 -5.01,12.54 0,3.56 0.7,6.57 2.07,8.98 1.37,2.45 3.64,4.64 6.83,6.57 2.89,1.82 7.13,3.56 12.69,5.23 5.57,1.67 9.28,2.89 11.17,3.67 7.49,3.19 12.98,7.46 16.51,12.72 3.53,5.31 5.27,12.02 5.27,20.22 0,10.28 -3.6,18.81 -10.76,25.56 -7.2,6.72 -16.29,10.09 -27.31,10.09 -11.24,0 -20.26,-3.67 -27.09,-11.02 -6.83,-7.35 -10.39,-17.25 -10.76,-29.72 z m 205.1,-58.32 c 8.2,-3.19 14.32,-7.16 18.4,-11.95 4.05,-4.78 6.09,-10.35 6.09,-16.73 0,-6.16 -2.04,-11.39 -6.16,-15.66 -4.08,-4.26 -8.98,-6.42 -14.73,-6.42 -6.45,0 -11.69,2.11 -15.77,6.31 -4.04,4.19 -6.08,9.76 -6.08,16.62 0,4.86 1.33,9.31 3.97,13.43 2.63,4.08 7.42,8.9 14.28,14.39 z m 36.29,55.61 -42.04,-39.14 c -7.83,3.86 -13.8,8.76 -17.92,14.73 -4.12,5.98 -6.16,12.73 -6.16,20.19 0,9.5 2.86,17.22 8.54,23.19 5.71,5.94 12.98,8.91 21.93,8.91 6.87,0 13.21,-2.26 18.96,-6.76 5.79,-4.49 11.35,-11.54 16.7,-21.11 z m 11.31,10.35 c -4.86,10.65 -11.43,18.81 -19.67,24.52 -8.27,5.71 -17.66,8.57 -28.16,8.57 -12.69,0 -23.52,-4.64 -32.54,-13.91 -9.02,-9.28 -13.54,-20.52 -13.54,-33.76 0,-9.5 2.71,-18.33 8.16,-26.53 5.42,-8.16 12.76,-14.36 21.96,-18.59 -7.05,-6.24 -11.87,-11.84 -14.47,-16.85 -2.56,-4.97 -3.86,-10.83 -3.86,-17.47 0,-10.31 3.71,-19.07 11.13,-26.31 7.46,-7.24 16.62,-10.87 27.57,-10.87 9.87,0 18.44,3.71 25.67,11.13 7.24,7.42 10.87,16.1 10.87,26.05 0,8.01 -2.6,15.36 -7.83,22 -5.19,6.6 -12.69,12.06 -22.44,16.32 l 32.02,29.57 18.74,-49.2 h 16.92 l -23.78,60.29 35.36,32.54 -9.83,11.57 -32.28,-29.09 z m 137.4,29.98 h -15.21 v -154.52 h 15.21 v 69.33 h 73.46 v -69.33 h 15.21 v 154.52 h -15.21 v -70.41 h -73.46 z m 213.81,-59.15 c 0,-12.39 -4.42,-23.18 -13.29,-32.42 -8.84,-9.24 -19.02,-13.83 -30.57,-13.83 -12.53,0 -23.22,4.6 -32.02,13.83 -8.8,9.24 -13.22,20.68 -13.22,34.34 0,13 4.38,23.98 13.19,32.93 8.76,8.94 19.3,13.44 31.62,13.44 11.91,0 22.28,-4.71 31.07,-14.16 8.8,-9.46 13.22,-20.83 13.22,-34.12 z m 0,40.64 c -4.67,6.74 -10.97,11.99 -18.94,15.83 -7.97,3.8 -16.56,5.72 -25.72,5.72 -17.13,0 -31.41,-5.87 -42.78,-17.57 -11.41,-11.7 -17.09,-26.15 -17.09,-43.36 0,-17.46 5.83,-32.06 17.46,-43.83 11.63,-11.74 26.19,-17.6 43.69,-17.6 8.98,0 17.2,1.81 24.7,5.47 7.5,3.66 13.73,8.91 18.69,15.76 v -18.62 h 14.56 v 116.7 h -14.56 v -18.51 z m 53.21,18.51 h -15.21 v -116.7 h 14.16 v 13.51 c 3.66,-5.22 7.64,-8.98 11.99,-11.41 4.31,-2.43 9.38,-3.7 15.14,-3.84 l 0.11,16.3 c -9.35,0.83 -16.08,3.66 -20.1,8.44 -4.06,4.78 -6.09,12.53 -6.09,23.29 z m 138,-57.23 c 0,-13.3 -4.42,-24.67 -13.22,-34.05 -8.84,-9.42 -19.16,-14.13 -31.07,-14.13 -12.32,0 -22.86,4.49 -31.62,13.44 -8.8,8.94 -13.19,19.89 -13.19,32.81 0,13.66 4.42,25.1 13.22,34.37 8.8,9.27 19.49,13.91 32.02,13.91 11.52,0 21.73,-4.64 30.57,-13.91 8.84,-9.27 13.29,-20.07 13.29,-32.45 z m -0.43,-41.07 v -25.97 -30.24 h 15 v 154.52 h -15 v -17.68 c -5.22,6.52 -11.74,11.59 -19.52,15.25 -7.79,3.66 -16.01,5.47 -24.74,5.47 -16.84,0 -31,-5.94 -42.52,-17.82 -11.56,-11.88 -17.31,-26.48 -17.31,-43.72 0,-17.13 5.69,-31.55 17.09,-43.25 11.37,-11.7 25.65,-17.57 42.74,-17.57 9.2,0 17.57,1.77 25.1,5.36 7.54,3.59 13.94,8.8 19.16,15.65 z m 31.26,61.57 h 15.43 v 0.43 c 0,7.28 2.1,13.3 6.27,18.07 4.17,4.75 9.31,7.14 15.47,7.14 5.83,0 10.72,-1.85 14.59,-5.51 3.88,-3.69 5.83,-8.33 5.83,-13.91 0,-5.57 -1.56,-10.07 -4.63,-13.47 -3.08,-3.37 -8.66,-6.56 -16.7,-9.53 -12.93,-4.6 -21.37,-9.31 -25.32,-14.13 -3.95,-4.81 -5.94,-11.26 -5.94,-19.3 0,-9.13 3.3,-16.88 9.93,-23.26 6.59,-6.37 14.63,-9.56 24.01,-9.56 10,0 17.89,2.83 23.76,8.48 5.87,5.69 9.02,13.58 9.45,23.69 h -16.08 c -0.36,-5.5 -2.1,-9.78 -5.25,-12.82 -3.15,-3.04 -7.43,-4.56 -12.89,-4.56 -4.85,0 -8.95,1.63 -12.17,4.93 -3.26,3.3 -4.89,7.39 -4.89,12.24 0,3.48 0.69,6.41 2.03,8.76 1.34,2.39 3.55,4.53 6.67,6.41 2.82,1.77 6.95,3.48 12.39,5.11 5.43,1.63 9.06,2.83 10.9,3.59 7.32,3.11 12.68,7.28 16.12,12.42 3.44,5.18 5.15,11.74 5.15,19.74 0,10.04 -3.52,18.37 -10.5,24.96 -7.03,6.56 -15.9,9.85 -26.66,9.85 -10.97,0 -19.78,-3.59 -26.44,-10.76 -6.67,-7.17 -10.14,-16.84 -10.5,-29.01 z m 185.41,-44.12 c -4.6,-8.51 -10.21,-14.81 -16.84,-18.87 -6.59,-4.09 -14.49,-6.12 -23.61,-6.12 -12.03,0 -22.24,4.56 -30.64,13.69 -8.37,9.13 -12.57,20.39 -12.57,33.83 0,13.44 4.2,24.67 12.64,33.69 8.4,9.02 18.83,13.55 31.22,13.55 9.06,0 17.06,-2.21 23.98,-6.67 6.95,-4.46 12.2,-10.72 15.83,-18.76 h 16.52 c -4.53,12.64 -11.63,22.46 -21.33,29.38 -9.67,6.92 -21.08,10.39 -34.26,10.39 -16.88,0 -31.15,-6.01 -42.78,-18 -11.63,-11.99 -17.46,-26.44 -17.46,-43.36 0,-17.24 5.9,-31.87 17.67,-43.86 11.77,-11.99 26.12,-18 43,-18 12.68,0 23.83,3.41 33.47,10.25 9.67,6.85 16.88,16.48 21.7,28.87 h -16.52 z m 136.92,21.7 c 0,-12.39 -4.42,-23.18 -13.29,-32.42 -8.84,-9.24 -19.02,-13.83 -30.57,-13.83 -12.53,0 -23.22,4.6 -32.02,13.83 -8.8,9.24 -13.22,20.68 -13.22,34.34 0,13 4.38,23.98 13.19,32.93 8.76,8.94 19.3,13.44 31.62,13.44 11.91,0 22.28,-4.71 31.07,-14.16 8.8,-9.46 13.22,-20.83 13.22,-34.12 z m 0,40.64 c -4.67,6.74 -10.97,11.99 -18.94,15.83 -7.97,3.8 -16.56,5.72 -25.72,5.72 -17.13,0 -31.41,-5.87 -42.78,-17.57 -11.41,-11.7 -17.09,-26.15 -17.09,-43.36 0,-17.46 5.83,-32.06 17.46,-43.83 11.63,-11.74 26.19,-17.6 43.69,-17.6 8.98,0 17.2,1.81 24.7,5.47 7.5,3.66 13.73,8.91 18.69,15.76 v -18.62 h 14.56 v 116.7 h -14.56 v -18.51 z m 37.78,-98.2 h 14.78 v 19.05 c 4.24,-6.59 10.32,-11.84 18.22,-15.76 7.86,-3.95 16.26,-5.9 25.17,-5.9 17.64,0 32.24,5.87 43.79,17.57 11.56,11.7 17.35,26.33 17.35,43.86 0,17.13 -5.72,31.55 -17.13,43.32 -11.44,11.73 -25.72,17.6 -42.81,17.6 -9.49,0 -18.04,-1.85 -25.65,-5.51 -7.61,-3.69 -13.91,-9.06 -18.94,-16.04 v 8.07 17.43 30.82 h -14.78 v -154.52 z m 14.78,57.56 c 0,13.3 4.39,24.67 13.19,34.12 8.77,9.45 19.09,14.16 31.01,14.16 12.24,0 22.74,-4.49 31.51,-13.44 8.8,-8.95 13.19,-19.92 13.19,-32.93 0,-13.66 -4.42,-25.1 -13.22,-34.34 -8.8,-9.24 -19.48,-13.83 -32.02,-13.83 -11.56,0 -21.7,4.63 -30.46,13.91 -8.8,9.28 -13.19,20.03 -13.19,32.35 z m 237.07,5.47 h -105.41 c 0.91,12.72 5.54,23 13.8,30.83 8.3,7.86 18.62,11.77 31,11.77 8.8,0 16.7,-2.28 23.69,-6.85 7.03,-4.56 12.43,-10.9 16.26,-19.02 h 16.95 c -5.36,12.93 -12.93,22.89 -22.64,29.81 -9.74,6.92 -21.01,10.39 -33.79,10.39 -16.99,0 -31.37,-6.05 -43.1,-18.15 -11.74,-12.1 -17.61,-26.66 -17.61,-43.61 0,-17.79 5.76,-32.46 17.24,-44.05 11.48,-11.63 26.19,-17.42 44.08,-17.42 17.53,0 31.84,6.05 42.92,18.11 11.05,12.06 16.59,27.74 16.59,47.09 v 1.09 z m -16.52,-13.04 c -2.83,-12.96 -8.04,-22.74 -15.61,-29.3 -7.57,-6.56 -17.46,-9.81 -29.63,-9.81 -11.34,0 -20.94,3.52 -28.8,10.58 -7.83,7.02 -12.64,16.55 -14.42,28.54 h 88.45 z"
   id="path25" />
  </g>
 </g>
</svg>
